<svg class="main-svg" xmlns="http://www.w3.org/2000/svg" xmlns:xlink="http://www.w3.org/1999/xlink" width="700" height="500" viewBox="0 0 700 500"><rect x="0" y="0" width="700" height="500" style="fill: rgb(255, 255, 255); fill-opacity: 1;"/><defs id="defs-20bfc8"><g class="clips"><clipPath id="clip20bfc8xyplot" class="plotclip"><rect width="540" height="320"/></clipPath><clipPath class="axesclip" id="clip20bfc8x"><rect x="80" y="0" width="540" height="500"/></clipPath><clipPath class="axesclip" id="clip20bfc8y"><rect x="0" y="100" width="700" height="320"/></clipPath><clipPath class="axesclip" id="clip20bfc8xy"><rect x="80" y="100" width="540" height="320"/></clipPath></g><g class="gradients"/></defs><g class="bglayer"/><g class="layer-below"><g class="imagelayer"/><g class="shapelayer"/></g><g class="cartesianlayer"><g class="subplot xy"><g class="layer-subplot"><g class="shapelayer"/><g class="imagelayer"/></g><g class="gridlayer"><g class="x"><path class="xgrid crisp" d="M0,100v320" transform="translate(215,0)" style="stroke: rgb(238, 238, 238); stroke-opacity: 1; stroke-width: 1px;"/><path class="xgrid crisp" d="M0,100v320" transform="translate(350,0)" style="stroke: rgb(238, 238, 238); stroke-opacity: 1; stroke-width: 1px;"/><path class="xgrid crisp" d="M0,100v320" transform="translate(485,0)" style="stroke: rgb(238, 238, 238); stroke-opacity: 1; stroke-width: 1px;"/></g><g class="y"><path class="ygrid crisp" d="M80,0h540" transform="translate(0,349.98)" style="stroke: rgb(238, 238, 238); stroke-opacity: 1; stroke-width: 1px;"/><path class="ygrid crisp" d="M80,0h540" transform="translate(0,279.96000000000004)" style="stroke: rgb(238, 238, 238); stroke-opacity: 1; stroke-width: 1px;"/><path class="ygrid crisp" d="M80,0h540" transform="translate(0,209.95)" style="stroke: rgb(238, 238, 238); stroke-opacity: 1; stroke-width: 1px;"/><path class="ygrid crisp" d="M80,0h540" transform="translate(0,139.93)" style="stroke: rgb(238, 238, 238); stroke-opacity: 1; stroke-width: 1px;"/></g></g><g class="zerolinelayer"/><path class="xlines-below"/><path class="ylines-below"/><g class="overlines-below"/><g class="xaxislayer-below"/><g class="yaxislayer-below"/><g class="overaxes-below"/><g class="plot" transform="translate(80, 100)" clip-path="url(#clip20bfc8xyplot)"><g class="scatterlayer mlayer"><g class="trace scatter trace155691c4-7407-4a47-a6e0-388cac71bacf" style="stroke-miterlimit: 2; opacity: 1;"><g class="fills"/><g class="errorbars"/><g class="lines"><path class="js-line" d="M2.7,199.57L5.4,169.84L8.1,175.51L10.8,158.39L13.5,162.39L16.2,158.71L18.9,158.72L21.6,143.96L24.3,155.07L27,164.69L29.7,158.86L32.4,169.7L35.1,127L37.8,106L40.5,97.05L43.2,83.09L45.9,81.95L48.6,86.21L51.3,63.05L54,68.15L56.7,87.54L59.4,68.01L62.1,57.01L64.8,82.12L67.5,79.74L70.2,91.98L72.9,90.02L75.6,95.65L78.3,78.83L81,80.41L83.7,74.1L86.4,91L89.1,91.06L91.8,96.32L94.5,92.82L97.2,64.14L99.9,50.6L102.6,65.4L105.3,73.64L110.7,53.47L113.4,62.35L116.1,59.42L118.8,47.37L121.5,43.64L124.2,44L126.9,46.67L129.6,76.1L132.3,80.2L135,72.21L137.7,47.98L140.4,67.98L143.1,44.05L145.8,73.03L148.5,44.72L151.2,65.18L153.9,29.09L156.6,50.6L159.3,42.04L162,53.04L164.7,75.93L167.4,78.66L170.1,78.29L172.8,74.25L175.5,46.68L178.2,61.59L180.9,48.07L183.6,92.75L186.3,72.78L189,92.85L191.7,54.52L194.4,74.6L197.1,82.4L199.8,83.45L202.5,83.06L205.2,83.65L207.9,67.94L210.6,72.25L213.3,71.54L216,85.34L218.7,79.77L221.4,68.96L224.1,66.87L226.8,41.85L229.5,48.14L232.2,63.65L234.9,49.7L237.6,88L240.3,71.73L243,95.29L245.7,79.73L248.4,83.49L251.1,74.62L253.8,97.33L256.5,101.32L259.2,100.55L261.9,95.06L264.6,86.95L267.3,70.61L270,88.34L272.7,78.5L275.4,102.86L278.1,93.26L280.8,116.61L283.5,114.53L286.2,107.06L288.9,85.83L291.6,91.73L294.3,99.77L297,120.84L299.7,106.64L302.4,104.46L305.1,115.46L307.8,101.1L310.5,110.79L313.2,107.85L315.9,99.08L318.6,109.96L321.3,101.87L324,111.26L326.7,110.58L329.4,106.22L332.1,106.84L334.8,112.92L340.2,105.51L342.9,113.9L345.6,105.35L348.3,109.02L351,129.06L353.7,121.22L356.4,99.77L359.1,87.72L361.8,79.59L364.5,96.55L367.2,105.93L369.9,102.89L372.6,107.71L375.3,102.11L378,108.52L380.7,109.63L383.4,120.11L386.1,117.9L388.8,113.03L391.5,106.36L394.2,68.23L396.9,85.19L399.6,98.55L402.3,91.25L405,111.32L407.7,91.29L413.1,110.51L415.8,105.13L418.5,100.12L421.2,100.63L423.9,115.49L426.6,150.92L434.7,116.81L437.4,120.11L440.1,103.23L442.8,112.58L445.5,120.88L448.2,119.32L450.9,123.07L453.6,116.72L456.3,121.93L459,112.5L461.7,109.98L464.4,118.31L467.1,103.63L469.8,110.65L472.5,114.41L475.2,101.84L477.9,100.2L480.6,108.06L483.3,117.78L486,104.28L488.7,104.14L491.4,93.2L494.1,85.88L496.8,81.87L499.5,99.7L502.2,97.32L504.9,92.46L507.6,101.83L510.3,97.71L513,98L515.7,96.36L518.4,105.06L521.1,103.72L523.8,106.29L526.5,99.99L529.2,116.05L531.9,100.17L534.6,106.08L537.3,113.1L540,104.58" style="vector-effect: non-scaling-stroke; fill: none; stroke: rgb(31, 119, 180); stroke-opacity: 1; stroke-width: 2px; opacity: 1;"/></g><g class="points"/><g class="text"/></g></g></g><g class="overplot"/><path class="xlines-above crisp" d="M79,420.5H620" style="fill: none; stroke-width: 1px; stroke: rgb(68, 68, 68); stroke-opacity: 1;"/><path class="ylines-above crisp" d="M79.5,100V420" style="fill: none; stroke-width: 1px; stroke: rgb(68, 68, 68); stroke-opacity: 1;"/><g class="overlines-above"/><g class="xaxislayer-above"><g class="xtick"><text text-anchor="middle" x="0" y="435.4" transform="translate(80,0)" style="font-family: 'Open Sans', verdana, arial, sans-serif; font-size: 12px; fill: rgb(68, 68, 68); fill-opacity: 1; white-space: pre;">0</text></g><g class="xtick"><text text-anchor="middle" x="0" y="435.4" transform="translate(215,0)" style="font-family: 'Open Sans', verdana, arial, sans-serif; font-size: 12px; fill: rgb(68, 68, 68); fill-opacity: 1; white-space: pre;">50</text></g><g class="xtick"><text text-anchor="middle" x="0" y="435.4" transform="translate(350,0)" style="font-family: 'Open Sans', verdana, arial, sans-serif; font-size: 12px; fill: rgb(68, 68, 68); fill-opacity: 1; white-space: pre;">100</text></g><g class="xtick"><text text-anchor="middle" x="0" y="435.4" transform="translate(485,0)" style="font-family: 'Open Sans', verdana, arial, sans-serif; font-size: 12px; fill: rgb(68, 68, 68); fill-opacity: 1; white-space: pre;">150</text></g><g class="xtick"><text text-anchor="middle" x="0" y="435.4" transform="translate(620,0)" style="font-family: 'Open Sans', verdana, arial, sans-serif; font-size: 12px; fill: rgb(68, 68, 68); fill-opacity: 1; white-space: pre;">200</text></g></g><g class="yaxislayer-above"><g class="ytick"><text text-anchor="end" x="76.6" y="4.199999999999999" transform="translate(0,420)" style="font-family: 'Open Sans', verdana, arial, sans-serif; font-size: 12px; fill: rgb(68, 68, 68); fill-opacity: 1; white-space: pre;">0</text></g><g class="ytick"><text text-anchor="end" x="76.6" y="4.199999999999999" transform="translate(0,349.98)" style="font-family: 'Open Sans', verdana, arial, sans-serif; font-size: 12px; fill: rgb(68, 68, 68); fill-opacity: 1; white-space: pre;">0.5</text></g><g class="ytick"><text text-anchor="end" x="76.6" y="4.199999999999999" transform="translate(0,279.96000000000004)" style="font-family: 'Open Sans', verdana, arial, sans-serif; font-size: 12px; fill: rgb(68, 68, 68); fill-opacity: 1; white-space: pre;">1</text></g><g class="ytick"><text text-anchor="end" x="76.6" y="4.199999999999999" transform="translate(0,209.95)" style="font-family: 'Open Sans', verdana, arial, sans-serif; font-size: 12px; fill: rgb(68, 68, 68); fill-opacity: 1; white-space: pre;">1.5</text></g><g class="ytick"><text text-anchor="end" x="76.6" y="4.199999999999999" transform="translate(0,139.93)" style="font-family: 'Open Sans', verdana, arial, sans-serif; font-size: 12px; fill: rgb(68, 68, 68); fill-opacity: 1; white-space: pre;">2</text></g></g><g class="overaxes-above"/></g></g><g class="polarlayer"/><g class="ternarylayer"/><g class="geolayer"/><g class="pielayer"/><g class="glimages"/><defs id="topdefs-20bfc8"><g class="clips"/></defs><g class="layer-above"><g class="imagelayer"/><g class="shapelayer"/></g><g class="infolayer"><g class="g-gtitle"><text class="gtitle" x="350" y="50" text-anchor="middle" style="font-family: 'Open Sans', verdana, arial, sans-serif; font-size: 17px; fill: rgb(68, 68, 68); opacity: 1; font-weight: normal; white-space: pre;">Encoder Binary Cross-Entropy</text></g><g class="g-xtitle"><text class="xtitle" x="350" y="472" text-anchor="middle" style="font-family: 'Open Sans', verdana, arial, sans-serif; font-size: 14px; fill: rgb(68, 68, 68); opacity: 1; font-weight: normal; white-space: pre;">Epoch</text></g><g class="g-ytitle"><text class="ytitle" transform="rotate(-90,42,260)" x="42" y="260" text-anchor="middle" style="font-family: 'Open Sans', verdana, arial, sans-serif; font-size: 14px; fill: rgb(68, 68, 68); opacity: 1; font-weight: normal; white-space: pre;">BCE</text></g></g></svg>