<svg class="main-svg" xmlns="http://www.w3.org/2000/svg" xmlns:xlink="http://www.w3.org/1999/xlink" width="700" height="500" viewBox="0 0 700 500"><rect x="0" y="0" width="700" height="500" style="fill: rgb(255, 255, 255); fill-opacity: 1;"/><defs id="defs-a9eb9b"><g class="clips"><clipPath id="clipa9eb9bxyplot" class="plotclip"><rect width="455" height="320"/></clipPath><clipPath class="axesclip" id="clipa9eb9bx"><rect x="80" y="0" width="455" height="500"/></clipPath><clipPath class="axesclip" id="clipa9eb9by"><rect x="0" y="100" width="700" height="320"/></clipPath><clipPath class="axesclip" id="clipa9eb9bxy"><rect x="80" y="100" width="455" height="320"/></clipPath></g><g class="gradients"/></defs><g class="bglayer"/><g class="layer-below"><g class="imagelayer"/><g class="shapelayer"/></g><g class="cartesianlayer"><g class="subplot xy"><g class="layer-subplot"><g class="shapelayer"/><g class="imagelayer"/></g><g class="gridlayer"><g class="x"><path class="xgrid crisp" d="M0,100v320" transform="translate(193.75,0)" style="stroke: rgb(238, 238, 238); stroke-opacity: 1; stroke-width: 1px;"/><path class="xgrid crisp" d="M0,100v320" transform="translate(307.5,0)" style="stroke: rgb(238, 238, 238); stroke-opacity: 1; stroke-width: 1px;"/><path class="xgrid crisp" d="M0,100v320" transform="translate(421.25,0)" style="stroke: rgb(238, 238, 238); stroke-opacity: 1; stroke-width: 1px;"/></g><g class="y"><path class="ygrid crisp" d="M80,0h455" transform="translate(0,369.24)" style="stroke: rgb(238, 238, 238); stroke-opacity: 1; stroke-width: 1px;"/><path class="ygrid crisp" d="M80,0h455" transform="translate(0,318.48)" style="stroke: rgb(238, 238, 238); stroke-opacity: 1; stroke-width: 1px;"/><path class="ygrid crisp" d="M80,0h455" transform="translate(0,267.72)" style="stroke: rgb(238, 238, 238); stroke-opacity: 1; stroke-width: 1px;"/><path class="ygrid crisp" d="M80,0h455" transform="translate(0,216.95999999999998)" style="stroke: rgb(238, 238, 238); stroke-opacity: 1; stroke-width: 1px;"/><path class="ygrid crisp" d="M80,0h455" transform="translate(0,166.2)" style="stroke: rgb(238, 238, 238); stroke-opacity: 1; stroke-width: 1px;"/><path class="ygrid crisp" d="M80,0h455" transform="translate(0,115.44)" style="stroke: rgb(238, 238, 238); stroke-opacity: 1; stroke-width: 1px;"/></g></g><g class="zerolinelayer"/><path class="xlines-below"/><path class="ylines-below"/><g class="overlines-below"/><g class="xaxislayer-below"/><g class="yaxislayer-below"/><g class="overaxes-below"/><g class="plot" transform="translate(80, 100)" clip-path="url(#clipa9eb9bxyplot)"><g class="scatterlayer mlayer"><g class="trace scatter trace2533676d-7f43-463b-b110-6379298e82dc" style="stroke-miterlimit: 2; opacity: 1;"><g class="fills"/><g class="errorbars"/><g class="lines"><path class="js-line" d="M2.28,31.32L4.55,83.66L6.82,66.5L9.1,62.34L11.38,79.5L13.65,66.81L15.93,43.41L18.2,101.02L20.47,88.48L22.75,57.82L25.03,83.15L27.3,71.83L29.58,120.56L31.85,137.62L34.13,123.66L36.4,150.56L38.67,163.81L40.95,148.84L43.23,179.19L45.5,169.44L47.78,155.74L50.05,168.83L52.33,169.24L54.6,165.18L56.88,168.68L59.15,163.3L61.43,143.91L63.7,159.09L65.97,168.33L68.25,164.06L70.52,156.6L72.8,152.85L75.08,144.42L77.35,142.69L79.63,144.47L81.9,181.98L84.18,195.99L86.45,169.34L88.73,159.55L91,162.69L93.28,195.38L95.55,178.12L97.83,175.69L100.1,176.2L102.38,181.47L104.65,183.86L106.93,150.71L109.2,135.23L111.48,153.2L116.03,169.65L118.3,156.4L120.57,122.08L122.85,161.63L125.13,147.92L127.4,147.67L129.67,187.31L131.95,174.88L134.23,157.92L136.5,164.11L138.78,106.65L141.05,138.02L143.32,155.84L145.6,158.12L147.88,169.55L150.15,171.53L152.42,102.74L154.7,136.4L156.98,142.19L159.25,135.64L161.53,136.8L163.8,101.63L166.08,137.26L168.35,137.11L170.63,136.04L172.9,101.83L175.18,150.36L177.45,147.72L179.73,128.89L182,103.2L184.28,127.06L186.55,129.8L188.83,147.87L191.1,146.4L193.38,162.08L195.65,146.91L197.93,121.48L200.2,132.79L202.48,90.71L204.75,112.9L207.03,126.15L209.3,134.27L211.58,133.76L213.85,93.25L216.13,110.76L218.4,104.88L220.68,99.55L222.95,110.26L225.23,105.94L227.5,114.72L229.77,117.67L232.05,75.79L234.33,109.8L236.6,90.71L238.88,103.91L241.15,100.51L243.43,113.81L245.7,96.09L247.98,115.69L250.25,78.23L252.52,118.07L254.8,86.65L257.08,98.63L259.35,104.37L261.63,79.24L263.9,90.61L266.18,112.64L268.45,108.89L270.72,100.97L273,67.87L275.27,124.77L277.55,91.68L279.83,119.19L282.1,110L284.38,101.58L286.65,99.65L288.93,105.69L291.2,86.86L293.47,111.98L295.75,71.22L298.02,101.88L300.3,93.81L302.58,148.89L304.85,116.55L307.13,124.42L309.4,104.06L311.68,101.27L313.95,117.21L316.22,111.22L318.5,110.66L320.77,58.38L323.05,97.52L325.33,110.61L327.6,111.53L329.88,117.87L332.15,136.8L334.43,121.48L336.7,135.84L338.98,106.55L341.25,113.05L343.53,139.9L345.8,100.31L348.08,119.95L350.35,124.98L352.63,112.39L354.9,112.08L357.18,110.46L359.45,55.33L361.73,100L364,86.4L366.28,96.45L368.55,94.32L370.83,127.87L373.1,99.29L375.38,109.65L377.65,116.4L379.93,112.34L382.2,118.23L384.48,102.14L386.75,111.07L389.03,105.49L391.3,93.15L393.58,87.67L395.85,104.12L398.13,117.67L400.4,99.04L402.68,82.95L404.95,111.48L407.23,96.55L409.5,115.28L411.78,136.04L414.05,137.77L416.33,128.33L418.6,137.16L420.88,127.87L423.15,127.36L427.7,120.61L429.98,121.98L432.25,104.98L434.53,125.28L436.8,136.4L439.08,121.48L441.35,110.16L443.63,122.24L445.9,125.69L448.17,119.6L450.45,124.01L452.73,116.2L455,127.21" style="vector-effect: non-scaling-stroke; fill: none; stroke: rgb(31, 119, 180); stroke-opacity: 1; stroke-width: 2px; opacity: 1;"/></g><g class="points"/><g class="text"/></g><g class="trace scatter trace9f8dcab8-432f-412b-b463-60260d688651" style="stroke-miterlimit: 2; opacity: 1;"><g class="fills"/><g class="errorbars"/><g class="lines"><path class="js-line" d="M2.28,29.09L4.55,68.73L6.82,58.02L9.1,80.97L11.38,70.31L13.65,78.53L15.93,73.51L18.2,105.23L20.47,68.13L22.75,58.89L25.03,87.72L27.3,66.96L29.58,128.18L31.85,145.43L34.13,141.47L36.4,169.29L38.67,172.19L40.95,159.75L43.23,186.75L45.5,179.95L47.78,158.53L50.05,179.24L52.33,184.93L54.6,163.86L56.88,168.73L59.15,145.69L61.43,149.24L63.7,153.86L65.97,176.55L68.25,167.11L70.52,176.6L72.8,156.3L75.08,154.22L77.35,149.65L79.63,155.03L81.9,184.98L84.18,201.52L88.73,161.22L91,174.01L93.28,192.54L95.55,180.36L97.83,177.01L100.1,185.89L102.38,191.07L104.65,191.78L109.2,160.41L111.48,155.59L113.75,161.32L116.03,179.29L118.3,152.44L120.57,165.33L122.85,151.78L125.13,180.92L127.4,155.84L129.67,193.1L131.95,175.23L134.23,180.51L136.5,168.07L138.78,121.22L141.05,148.33L143.32,146.7L145.6,153.1L147.88,181.93L150.15,167.36L152.42,137.97L154.7,126.5L156.98,161.98L159.25,121.98L161.53,155.69L163.8,132.74L166.08,137.06L168.35,129.14L170.63,127.77L172.9,117.57L175.18,160.71L177.45,145.74L179.73,146.4L182,119.09L184.28,140.16L186.55,145.89L188.83,149.14L191.1,166.96L193.38,166.75L195.65,157.36L197.93,160.26L200.2,103.2L202.48,118.84L204.75,120.16L207.03,145.69L209.3,142.74L211.58,150.1L213.85,99.34L216.13,116.04L218.4,114.52L220.68,114.62L225.23,147.36L227.5,124.01L229.77,144.06L232.05,93.1L234.33,125.74L236.6,86.04L238.88,86.91L241.15,105.84L243.43,126.65L245.7,121.48L247.98,115.59L250.25,59.9L252.52,123.66L254.8,103.71L257.08,96.15L259.35,125.99L261.63,91.68L263.9,112.85L266.18,122.95L268.45,95.54L270.72,114.17L273,89.85L275.27,112.85L277.55,112.08L279.83,112.95L282.1,100.11L286.65,111.42L288.93,95.89L291.2,111.53L293.47,103.1L295.75,40.36L298.02,98.58L302.58,155.23L304.85,135.89L307.13,125.94L309.4,105.79L313.95,117.16L316.22,117.67L318.5,111.07L320.77,85.49L323.05,99.75L325.33,93.61L327.6,110.66L329.88,118.43L332.15,163.61L334.43,138.18L336.7,130.41L338.98,126.81L341.25,107.11L343.53,138.53L345.8,117.52L348.08,119.24L350.35,122.08L352.63,121.78L354.9,128.58L357.18,99.45L359.45,51.32L361.73,89.04L364,99.39L366.28,94.93L368.55,94.17L370.83,124.22L373.1,102.85L375.38,95.74L377.65,99.14L379.93,95.64L382.2,109.24L384.48,94.57L386.75,124.98L389.03,112.8L391.3,94.22L393.58,125.89L395.85,117.72L398.13,112.54L400.4,126.5L402.68,126.35L404.95,117.72L407.23,97.21L409.5,129.04L411.78,124.83L414.05,136.55L416.33,139.39L418.6,154.11L420.88,130.66L423.15,126.96L425.43,140.05L427.7,120.36L429.98,125.79L434.53,136.09L436.8,126.35L439.08,116.4L441.35,96.6L443.63,130.36L445.9,106.3L448.17,123.56L450.45,125.54L452.73,104.88L455,113.71" style="vector-effect: non-scaling-stroke; fill: none; stroke: rgb(255, 127, 14); stroke-opacity: 1; stroke-width: 2px; opacity: 1;"/></g><g class="points"/><g class="text"/></g></g></g><g class="overplot"/><path class="xlines-above crisp" d="M79,420.5H535" style="fill: none; stroke-width: 1px; stroke: rgb(68, 68, 68); stroke-opacity: 1;"/><path class="ylines-above crisp" d="M79.5,100V420" style="fill: none; stroke-width: 1px; stroke: rgb(68, 68, 68); stroke-opacity: 1;"/><g class="overlines-above"/><g class="xaxislayer-above"><g class="xtick"><text text-anchor="middle" x="0" y="435.4" transform="translate(80,0)" style="font-family: 'Open Sans', verdana, arial, sans-serif; font-size: 12px; fill: rgb(68, 68, 68); fill-opacity: 1; white-space: pre;">0</text></g><g class="xtick"><text text-anchor="middle" x="0" y="435.4" transform="translate(193.75,0)" style="font-family: 'Open Sans', verdana, arial, sans-serif; font-size: 12px; fill: rgb(68, 68, 68); fill-opacity: 1; white-space: pre;">50</text></g><g class="xtick"><text text-anchor="middle" x="0" y="435.4" transform="translate(307.5,0)" style="font-family: 'Open Sans', verdana, arial, sans-serif; font-size: 12px; fill: rgb(68, 68, 68); fill-opacity: 1; white-space: pre;">100</text></g><g class="xtick"><text text-anchor="middle" x="0" y="435.4" transform="translate(421.25,0)" style="font-family: 'Open Sans', verdana, arial, sans-serif; font-size: 12px; fill: rgb(68, 68, 68); fill-opacity: 1; white-space: pre;">150</text></g><g class="xtick"><text text-anchor="middle" x="0" y="435.4" transform="translate(535,0)" style="font-family: 'Open Sans', verdana, arial, sans-serif; font-size: 12px; fill: rgb(68, 68, 68); fill-opacity: 1; white-space: pre;">200</text></g></g><g class="yaxislayer-above"><g class="ytick"><text text-anchor="end" x="76.6" y="4.199999999999999" transform="translate(0,420)" style="font-family: 'Open Sans', verdana, arial, sans-serif; font-size: 12px; fill: rgb(68, 68, 68); fill-opacity: 1; white-space: pre;">0</text></g><g class="ytick"><text text-anchor="end" x="76.6" y="4.199999999999999" transform="translate(0,369.24)" style="font-family: 'Open Sans', verdana, arial, sans-serif; font-size: 12px; fill: rgb(68, 68, 68); fill-opacity: 1; white-space: pre;">0.1</text></g><g class="ytick"><text text-anchor="end" x="76.6" y="4.199999999999999" transform="translate(0,318.48)" style="font-family: 'Open Sans', verdana, arial, sans-serif; font-size: 12px; fill: rgb(68, 68, 68); fill-opacity: 1; white-space: pre;">0.2</text></g><g class="ytick"><text text-anchor="end" x="76.6" y="4.199999999999999" transform="translate(0,267.72)" style="font-family: 'Open Sans', verdana, arial, sans-serif; font-size: 12px; fill: rgb(68, 68, 68); fill-opacity: 1; white-space: pre;">0.3</text></g><g class="ytick"><text text-anchor="end" x="76.6" y="4.199999999999999" transform="translate(0,216.95999999999998)" style="font-family: 'Open Sans', verdana, arial, sans-serif; font-size: 12px; fill: rgb(68, 68, 68); fill-opacity: 1; white-space: pre;">0.4</text></g><g class="ytick"><text text-anchor="end" x="76.6" y="4.199999999999999" transform="translate(0,166.2)" style="font-family: 'Open Sans', verdana, arial, sans-serif; font-size: 12px; fill: rgb(68, 68, 68); fill-opacity: 1; white-space: pre;">0.5</text></g><g class="ytick"><text text-anchor="end" x="76.6" y="4.199999999999999" transform="translate(0,115.44)" style="font-family: 'Open Sans', verdana, arial, sans-serif; font-size: 12px; fill: rgb(68, 68, 68); fill-opacity: 1; white-space: pre;">0.6</text></g></g><g class="overaxes-above"/></g></g><g class="polarlayer"/><g class="ternarylayer"/><g class="geolayer"/><g class="pielayer"/><g class="glimages"/><defs id="topdefs-a9eb9b"><g class="clips"/><clipPath id="legenda9eb9b"><rect width="144" height="48" x="0" y="0"/></clipPath></defs><g class="layer-above"><g class="imagelayer"/><g class="shapelayer"/></g><g class="infolayer"><g class="legend" pointer-events="all" transform="translate(544.1, 100)"><rect class="bg" shape-rendering="crispEdges" style="stroke: rgb(68, 68, 68); stroke-opacity: 1; fill: rgb(255, 255, 255); fill-opacity: 1; stroke-width: 0px;" width="144" height="48" x="0" y="0"/><g class="scrollbox" transform="translate(0, 0)" clip-path="url(#legenda9eb9b)"><g class="groups"><g class="traces" transform="translate(0, 14.5)" style="opacity: 1;"><g class="layers" style="opacity: 1;"><g class="legendfill"/><g class="legendlines"><path class="js-line" d="M5,0h30" style="fill: none; stroke: rgb(31, 119, 180); stroke-opacity: 1; stroke-width: 2px;"/></g><g class="legendsymbols"><g class="legendpoints"/></g></g><text class="legendtext user-select-none" text-anchor="start" x="40" y="4.680000000000001" style="font-family: 'Open Sans', verdana, arial, sans-serif; font-size: 12px; fill: rgb(68, 68, 68); fill-opacity: 1; white-space: pre;">Cover images</text><rect class="legendtoggle" pointer-events="all" style="cursor: pointer; fill: rgb(0, 0, 0); fill-opacity: 0;" x="0" y="-9.5" width="184" height="19"/></g><g class="traces" transform="translate(0, 33.5)" style="opacity: 1;"><g class="layers" style="opacity: 1;"><g class="legendfill"/><g class="legendlines"><path class="js-line" d="M5,0h30" style="fill: none; stroke: rgb(255, 127, 14); stroke-opacity: 1; stroke-width: 2px;"/></g><g class="legendsymbols"><g class="legendpoints"/></g></g><text class="legendtext user-select-none" text-anchor="start" x="40" y="4.680000000000001" style="font-family: 'Open Sans', verdana, arial, sans-serif; font-size: 12px; fill: rgb(68, 68, 68); fill-opacity: 1; white-space: pre;">Encoded images</text><rect class="legendtoggle" pointer-events="all" x="0" y="-9.5" width="184" height="19" style="cursor: pointer; fill: rgb(0, 0, 0); fill-opacity: 0;"/></g></g></g><rect class="scrollbar" rx="20" ry="3" width="0" height="0" style="fill: rgb(128, 139, 164); fill-opacity: 1;" x="0" y="0"/></g><g class="g-gtitle"><text class="gtitle" x="350" y="50" text-anchor="middle" style="font-family: 'Open Sans', verdana, arial, sans-serif; font-size: 17px; fill: rgb(68, 68, 68); opacity: 1; font-weight: normal; white-space: pre;">Discriminator Binary Cross-Entropy</text></g><g class="g-xtitle"><text class="xtitle" x="307.5" y="472" text-anchor="middle" style="font-family: 'Open Sans', verdana, arial, sans-serif; font-size: 14px; fill: rgb(68, 68, 68); opacity: 1; font-weight: normal; white-space: pre;">Epoch</text></g><g class="g-ytitle"><text class="ytitle" transform="rotate(-90,42,260)" x="42" y="260" text-anchor="middle" style="font-family: 'Open Sans', verdana, arial, sans-serif; font-size: 14px; fill: rgb(68, 68, 68); opacity: 1; font-weight: normal; white-space: pre;">BCE</text></g></g></svg>