<svg class="main-svg" xmlns="http://www.w3.org/2000/svg" xmlns:xlink="http://www.w3.org/1999/xlink" width="700" height="500" viewBox="0 0 700 500"><rect x="0" y="0" width="700" height="500" style="fill: rgb(255, 255, 255); fill-opacity: 1;"/><defs id="defs-2a131a"><g class="clips"><clipPath id="clip2a131axyplot" class="plotclip"><rect width="540" height="320"/></clipPath><clipPath class="axesclip" id="clip2a131ax"><rect x="80" y="0" width="540" height="500"/></clipPath><clipPath class="axesclip" id="clip2a131ay"><rect x="0" y="100" width="700" height="320"/></clipPath><clipPath class="axesclip" id="clip2a131axy"><rect x="80" y="100" width="540" height="320"/></clipPath></g><g class="gradients"/></defs><g class="bglayer"/><g class="layer-below"><g class="imagelayer"/><g class="shapelayer"/></g><g class="cartesianlayer"><g class="subplot xy"><g class="layer-subplot"><g class="shapelayer"/><g class="imagelayer"/></g><g class="gridlayer"><g class="x"><path class="xgrid crisp" d="M0,100v320" transform="translate(215,0)" style="stroke: rgb(238, 238, 238); stroke-opacity: 1; stroke-width: 1px;"/><path class="xgrid crisp" d="M0,100v320" transform="translate(350,0)" style="stroke: rgb(238, 238, 238); stroke-opacity: 1; stroke-width: 1px;"/><path class="xgrid crisp" d="M0,100v320" transform="translate(485,0)" style="stroke: rgb(238, 238, 238); stroke-opacity: 1; stroke-width: 1px;"/></g><g class="y"><path class="ygrid crisp" d="M80,0h540" transform="translate(0,357.84)" style="stroke: rgb(238, 238, 238); stroke-opacity: 1; stroke-width: 1px;"/><path class="ygrid crisp" d="M80,0h540" transform="translate(0,295.68)" style="stroke: rgb(238, 238, 238); stroke-opacity: 1; stroke-width: 1px;"/><path class="ygrid crisp" d="M80,0h540" transform="translate(0,233.52)" style="stroke: rgb(238, 238, 238); stroke-opacity: 1; stroke-width: 1px;"/><path class="ygrid crisp" d="M80,0h540" transform="translate(0,171.36)" style="stroke: rgb(238, 238, 238); stroke-opacity: 1; stroke-width: 1px;"/><path class="ygrid crisp" d="M80,0h540" transform="translate(0,109.2)" style="stroke: rgb(238, 238, 238); stroke-opacity: 1; stroke-width: 1px;"/></g></g><g class="zerolinelayer"/><path class="xlines-below"/><path class="ylines-below"/><g class="overlines-below"/><g class="xaxislayer-below"/><g class="yaxislayer-below"/><g class="overaxes-below"/><g class="plot" transform="translate(80, 100)" clip-path="url(#clip2a131axyplot)"><g class="scatterlayer mlayer"><g class="trace scatter trace32a12c94-756c-4e39-b7bb-500bec95f59c" style="stroke-miterlimit: 2; opacity: 1;"><g class="fills"/><g class="errorbars"/><g class="lines"><path class="js-line" d="M2.7,29.09L5.4,194.44L8.1,218.06L10.8,215.57L13.5,216.81L16.2,218.06L18.9,225.52L21.6,213.08L24.3,235.46L27,234.22L29.7,231.73L32.4,232.98L35.1,232.98L37.8,234.22L40.5,240.44L43.2,229.25L45.9,235.46L48.6,240.44L51.3,237.95L54,235.46L56.7,230.49L59.4,232.98L62.1,228L64.8,234.22L67.5,231.73L70.2,232.98L72.9,235.46L75.6,235.46L78.3,234.22L81,235.46L83.7,242.92L86.4,240.44L89.1,247.89L91.8,250.38L94.5,249.14L97.2,241.68L99.9,242.92L102.6,247.89L105.3,247.89L108,247.89L110.7,244.16L113.4,245.41L116.1,245.41L118.8,256.6L121.5,250.38L124.2,251.62L126.9,259.08L129.6,255.35L132.3,257.84L135,259.08L137.7,257.84L140.4,251.62L143.1,260.33L145.8,259.08L148.5,265.3L151.2,260.33L153.9,262.81L159.3,267.79L162,266.54L164.7,266.54L167.4,269.03L170.1,266.54L172.8,270.27L175.5,270.27L178.2,275.24L180.9,266.54L183.6,272.76L186.3,270.27L189,277.73L191.7,274L194.4,275.24L197.1,277.73L199.8,277.73L202.5,278.97L205.2,276.49L207.9,275.24L210.6,277.73L216,283.95L218.7,278.97L224.1,281.46L226.8,280.22L229.5,278.97L232.2,281.46L234.9,281.46L237.6,283.95L240.3,281.46L243,286.43L245.7,285.19L248.4,280.22L251.1,285.19L253.8,282.7L256.5,286.43L259.2,286.43L261.9,286.43L264.6,285.19L267.3,285.19L270,283.95L272.7,286.43L275.4,283.95L278.1,286.43L280.8,287.68L288.9,287.68L291.6,286.43L297,288.92L299.7,286.43L302.4,288.92L305.1,288.92L310.5,288.92L313.2,287.68L318.6,290.16L321.3,288.92L324,288.92L326.7,290.16L329.4,291.41L332.1,287.68L334.8,290.16L337.5,290.16L340.2,291.41L342.9,291.41L351,291.41L353.7,292.65L356.4,291.41L359.1,288.92L361.8,287.68L364.5,290.16L367.2,290.16L369.9,288.92L372.6,292.65L375.3,291.41L378,291.41L380.7,292.65L383.4,291.41L386.1,291.41L402.3,291.41L405,292.65L407.7,291.41L410.4,293.89L415.8,291.41L418.5,291.41L421.2,293.89L423.9,291.41L426.6,292.65L429.3,292.65L432,295.14L434.7,291.41L437.4,291.41L440.1,293.89L442.8,292.65L445.5,293.89L453.6,293.89L456.3,295.14L459,292.65L461.7,292.65L464.4,293.89L467.1,292.65L469.8,295.14L472.5,292.65L480.6,292.65L483.3,293.89L486,295.14L488.7,295.14L491.4,292.65L494.1,293.89L499.5,293.89L502.2,295.14L504.9,293.89L507.6,296.38L510.3,295.14L513,295.14L534.6,295.14L537.3,296.38L540,293.89" style="vector-effect: non-scaling-stroke; fill: none; stroke: rgb(31, 119, 180); stroke-opacity: 1; stroke-width: 2px; opacity: 1;"/></g><g class="points"/><g class="text"/></g></g></g><g class="overplot"/><path class="xlines-above crisp" d="M79,420.5H620" style="fill: none; stroke-width: 1px; stroke: rgb(68, 68, 68); stroke-opacity: 1;"/><path class="ylines-above crisp" d="M79.5,100V420" style="fill: none; stroke-width: 1px; stroke: rgb(68, 68, 68); stroke-opacity: 1;"/><g class="overlines-above"/><g class="xaxislayer-above"><g class="xtick"><text text-anchor="middle" x="0" y="435.4" transform="translate(80,0)" style="font-family: 'Open Sans', verdana, arial, sans-serif; font-size: 12px; fill: rgb(68, 68, 68); fill-opacity: 1; white-space: pre;">0</text></g><g class="xtick"><text text-anchor="middle" x="0" y="435.4" transform="translate(215,0)" style="font-family: 'Open Sans', verdana, arial, sans-serif; font-size: 12px; fill: rgb(68, 68, 68); fill-opacity: 1; white-space: pre;">50</text></g><g class="xtick"><text text-anchor="middle" x="0" y="435.4" transform="translate(350,0)" style="font-family: 'Open Sans', verdana, arial, sans-serif; font-size: 12px; fill: rgb(68, 68, 68); fill-opacity: 1; white-space: pre;">100</text></g><g class="xtick"><text text-anchor="middle" x="0" y="435.4" transform="translate(485,0)" style="font-family: 'Open Sans', verdana, arial, sans-serif; font-size: 12px; fill: rgb(68, 68, 68); fill-opacity: 1; white-space: pre;">150</text></g><g class="xtick"><text text-anchor="middle" x="0" y="435.4" transform="translate(620,0)" style="font-family: 'Open Sans', verdana, arial, sans-serif; font-size: 12px; fill: rgb(68, 68, 68); fill-opacity: 1; white-space: pre;">200</text></g></g><g class="yaxislayer-above"><g class="ytick"><text text-anchor="end" x="76.6" y="4.199999999999999" transform="translate(0,420)" style="font-family: 'Open Sans', verdana, arial, sans-serif; font-size: 12px; fill: rgb(68, 68, 68); fill-opacity: 1; white-space: pre;">0</text></g><g class="ytick"><text text-anchor="end" x="76.6" y="4.199999999999999" transform="translate(0,357.84)" style="font-family: 'Open Sans', verdana, arial, sans-serif; font-size: 12px; fill: rgb(68, 68, 68); fill-opacity: 1; white-space: pre;">0.005</text></g><g class="ytick"><text text-anchor="end" x="76.6" y="4.199999999999999" transform="translate(0,295.68)" style="font-family: 'Open Sans', verdana, arial, sans-serif; font-size: 12px; fill: rgb(68, 68, 68); fill-opacity: 1; white-space: pre;">0.01</text></g><g class="ytick"><text text-anchor="end" x="76.6" y="4.199999999999999" transform="translate(0,233.52)" style="font-family: 'Open Sans', verdana, arial, sans-serif; font-size: 12px; fill: rgb(68, 68, 68); fill-opacity: 1; white-space: pre;">0.015</text></g><g class="ytick"><text text-anchor="end" x="76.6" y="4.199999999999999" transform="translate(0,171.36)" style="font-family: 'Open Sans', verdana, arial, sans-serif; font-size: 12px; fill: rgb(68, 68, 68); fill-opacity: 1; white-space: pre;">0.02</text></g><g class="ytick"><text text-anchor="end" x="76.6" y="4.199999999999999" transform="translate(0,109.2)" style="font-family: 'Open Sans', verdana, arial, sans-serif; font-size: 12px; fill: rgb(68, 68, 68); fill-opacity: 1; white-space: pre;">0.025</text></g></g><g class="overaxes-above"/></g></g><g class="polarlayer"/><g class="ternarylayer"/><g class="geolayer"/><g class="pielayer"/><g class="glimages"/><defs id="topdefs-2a131a"><g class="clips"/></defs><g class="layer-above"><g class="imagelayer"/><g class="shapelayer"/></g><g class="infolayer"><g class="g-gtitle"><text class="gtitle" x="350" y="50" text-anchor="middle" style="font-family: 'Open Sans', verdana, arial, sans-serif; font-size: 17px; fill: rgb(68, 68, 68); opacity: 1; font-weight: normal; white-space: pre;">Encoder Mean Square Error</text></g><g class="g-xtitle"><text class="xtitle" x="350" y="472" text-anchor="middle" style="font-family: 'Open Sans', verdana, arial, sans-serif; font-size: 14px; fill: rgb(68, 68, 68); opacity: 1; font-weight: normal; white-space: pre;">Epoch</text></g><g class="g-ytitle"><text class="ytitle" transform="rotate(-90,42,260)" x="42" y="260" text-anchor="middle" style="font-family: 'Open Sans', verdana, arial, sans-serif; font-size: 14px; fill: rgb(68, 68, 68); opacity: 1; font-weight: normal; white-space: pre;">MSE</text></g></g></svg>